<svg xmlns="http://www.w3.org/2000/svg" viewBox="0 0 500 500" width="500" height="500"
    class="illustration">
    <title>Bookshelf</title>
    <g id="Layer_1" data-name="Layer 1">
        <rect x="289.15" y="160.04" width="34.91" height="85.59" fill="transparent"></rect>
        <rect x="337.58" y="301.94" width="38.29" height="87.85" fill="transparent"></rect>
        <polygon points="250.86 368.95 280.14 332.35 306.61 352.06 277.33 390.35 250.86 368.95"
            fill="transparent"></polygon>
        <rect x="140.49" y="299.69" width="33.79" height="27.59" fill="transparent"></rect>
        <rect x="139.92" y="193.82" width="34.35" height="55.19" fill="transparent"></rect>
        <rect x="67.28" y="87.96" width="93.48" height="21.4" fill="transparent"></rect>
        <rect x="99.06" y="114.99" width="14.4" height="133.47" fill="transparent"></rect>
        <rect x="67.28" y="254.64" width="93.48" height="21.4" fill="transparent"></rect>
        <rect x="99.06" y="281.67" width="14.4" height="133.47" fill="transparent"></rect>
    </g>
    <g id="Layer_11" data-name="Layer 11">
        <path
            d="M67.28,458.42H434.44a7,7,0,0,0,7-7v-27a7,7,0,0,0-7-7h-8.77V289.48h8.77a7,7,0,0,0,7-7v-27a7,7,0,0,0-7-7h-8.77V120.86h8.77a7,7,0,0,0,7-7v-27a7,7,0,0,0-7-7H67.28a7,7,0,0,0-7,7v27a7,7,0,0,0,7,7H85.06V248.45H67.28a7,7,0,0,0-7,7v27a7,7,0,0,0,7,7H85.06V417.39H67.28a7,7,0,0,0-7,7v27A7,7,0,0,0,67.28,458.42Zm7-27H427.44v13H74.28Zm0-168.94H427.44v13H74.28Zm0-168.62H427.44v13H74.28Zm337.39,27V248.45h-13v-114a7,7,0,0,0-7-7H118a7,7,0,0,0-7,7v114H99.06V120.86Zm-42.8,60.33h-22V165h22Zm-22,14h22v52.45h-22Zm-29.48-14h-22V165h22Zm-22,14h22v52.45h-22Zm-127.47-14h-22V165h22Zm-22,14h22v52.45h-22Zm36-2.61,41.91,53.93H181.84Zm34.38,21,17.2-13.36,24.18,31.12-17.4,13.52L216,213.73C216.07,213.68,216.15,213.64,216.22,213.58Zm-8.59-11.05-.2.17L189.5,179.62l17.4-13.52,17.93,23.07Zm177,44h-1.77V158a7,7,0,0,0-7-7h-36a7,7,0,0,0-7,7v88.5h-1.48V158a7,7,0,0,0-7-7h-36a7,7,0,0,0-7,7v88.5H260.89l10.83-8.41a7,7,0,0,0,1.23-9.82L213.66,152a7,7,0,0,0-9.82-1.23l-22,17.09V158a7,7,0,0,0-7-7h-36a7,7,0,0,0-7,7v88.5H125v-105H384.64Zm-96.46,143.6,44.65-57.46v57.46Zm-90.86-54.86h22V387.7h-22Zm22-14h-22V305.08h22Zm7-30.17h-36a7,7,0,0,0-7,7v92h-1.48v-92a7,7,0,0,0-7-7h-36a7,7,0,0,0-7,7v92H125V289.48H305.14A7,7,0,0,0,301,292l-59.29,76.3a7,7,0,0,0,1.23,9.82l15.38,11.95h-25v-92A7,7,0,0,0,226.36,291.08ZM145.8,335.25h22V387.7h-22Zm22-14h-22V305.08h22Zm179,14h22V387.7h-22Zm22-14h-22V305.08h22Zm-61.63,21.51-.2-.17-17.2-13.36,17.93-23.07,17.4,13.53Zm-26-2.48,17.2,13.36c.07.06.15.1.22.15l-24.2,31.14-17.4-13.53Zm94.62-49.2h-36a7,7,0,0,0-7,7v9.83l-22-17.1a7,7,0,0,0-2.9-1.33h76.71V390.11h-1.77v-92A7,7,0,0,0,375.87,291.08ZM111,289.48V397.11a7,7,0,0,0,7,7H391.64a7,7,0,0,0,7-7V289.48h13V417.39H99.06V289.48Z"
            fill="#FFFFFF"></path>
    </g>
</svg>