<svg id="Layer_1" data-name="Layer 1" xmlns="http://www.w3.org/2000/svg" viewBox="0 0 500 500" width="500" height="500" class="illustration"><defs><style>.cls-1{fill:#e2e2e2;}.cls-2{fill:#f2f2f2;}.cls-3{fill:none;stroke:#0099f5;stroke-linecap:round;stroke-linejoin:round;stroke-width:5px;}.cls-4{fill:#13183f;opacity:0.09;}.cls-5{fill:#db2868;}.cls-6{fill:#f0457d;}.cls-7{fill:#fcab28;}.cls-8{fill:#ffd44d;}.cls-9{fill:#ffd733;}.cls-10{fill:#ffe266;}</style></defs><title>Learning</title><rect class="cls-1" x="100.45" y="26.83" width="301.67" height="387.22" rx="3"></rect><polygon class="cls-2" points="390.26 77.41 363.52 43.53 139.07 43.53 112.32 77.41 112.32 363.46 139.07 397.34 360.64 397.34 390.26 359.82 390.26 77.41"></polygon><line class="cls-3" x1="161.44" y1="142.26" x2="341.14" y2="142.26"></line><line class="cls-3" x1="161.44" y1="200.03" x2="341.14" y2="200.03"></line><line class="cls-3" x1="230.56" y1="257.79" x2="159.29" y2="257.79"></line><polygon class="cls-4" points="230.49 414.01 295.14 324.86 315.55 339.21 312.89 379.92 311.9 413.67 230.49 414.01"></polygon><polygon class="cls-5" points="325.45 412.71 343.35 472.78 358.04 451.69 382.32 460.64 363.15 402.49 325.45 412.71"></polygon><polygon class="cls-6" points="303.73 406.32 284.56 461.92 310.76 452.97 324.18 473.42 346.54 413.99 303.73 406.32"></polygon><path class="cls-7" d="M275.61,367.34c0-2.68,6.55-4.87,6.92-7.46s-5.29-6.59-4.55-9.1,7.65-2.81,8.74-5.21-3.21-7.8-1.78-10,8.13-.53,9.86-2.53-.9-8.38,1.1-10.11,7.94,1.77,10.17.34,1.48-8.3,3.9-9.4,7.1,3.95,9.66,3.2,3.76-7.53,6.41-7.91,5.67,5.8,8.36,5.8,5.78-6.17,8.36-5.8,3.89,7.17,6.41,7.91,7.27-4.3,9.66-3.2,1.68,8,3.9,9.4,8.17-2.07,10.17-.34S372.27,331,374,333s8.42.3,9.86,2.53-2.89,7.6-1.78,10,8,2.64,8.74,5.2-4.93,6.45-4.55,9.1,6.92,4.78,6.92,7.46-6.55,4.88-6.92,7.47,5.29,6.59,4.55,9.1-7.65,2.81-8.74,5.2,3.21,7.81,1.78,10-8.13.53-9.86,2.53.9,8.38-1.1,10.11-7.94-1.77-10.17-.34-1.48,8.3-3.9,9.4-7.1-3.95-9.66-3.2-3.76,7.53-6.41,7.91-5.67-5.8-8.36-5.8-5.78,6.17-8.36,5.8-3.89-7.17-6.41-7.91-7.27,4.3-9.66,3.2-1.68-8-3.9-9.4-8.17,2.07-10.17.34.63-8.11-1.1-10.11-8.42-.3-9.86-2.53,2.89-7.6,1.78-10-8-2.64-8.74-5.2,4.93-6.45,4.55-9.1S275.61,370,275.61,367.34Z"></path><circle class="cls-8" cx="334.4" cy="367.34" r="47.29"></circle><path class="cls-7" d="M334.4,415.59a48.24,48.24,0,1,1,34.11-14.13A47.92,47.92,0,0,1,334.4,415.59Zm0-94.57a46.33,46.33,0,1,0,46.33,46.32A46.38,46.38,0,0,0,334.4,321Z"></path><circle class="cls-9" cx="334.4" cy="367.34" r="33.87"></circle><path class="cls-10" d="M362.52,353.93a33.58,33.58,0,0,0-.6-6.31,33.85,33.85,0,0,0-60.79,26,33.86,33.86,0,0,0,61.39-19.72Z"></path></svg>