<svg xmlns="http://www.w3.org/2000/svg" viewBox="0 0 500 500" width="500" height="500"
    class="illustration">
    <title>39. Newspaper</title>
    <g id="Layer_9" data-name="Layer 9">
        <path
            d="M76.55,86h50.39a56,56,0,0,1,56,56V373.23a0,0,0,0,1,0,0H76.55a0,0,0,0,1,0,0V86A0,0,0,0,1,76.55,86Z"
            fill="transparent"></path>
        <polygon
            points="225.78 202.6 265.19 171.07 332.77 240.9 212.26 243.15 215.64 207.11 225.78 202.6"
            fill="transparent"></polygon>
        <circle cx="294.48" cy="145.17" r="11.26" fill="transparent"></circle>
    </g>
    <g id="Layer_3" data-name="Layer 3">
        <path
            d="M96.82,331.24a7,7,0,0,1,0-14h79.44V226.5H140.75a7,7,0,0,1,0-14h35.51V179.2H96.82a7,7,0,0,1,0-14h79.44V151.4a67.56,67.56,0,0,0-61.39-67.28,6.62,6.62,0,0,1-1.42-.28h-4.59a60,60,0,0,0-59.92,59.92V371H176.26V331.24Zm0-90h60.82a7,7,0,0,1,0,14H96.82a7,7,0,1,1,0-14Zm0,38.85h60.82a7,7,0,0,1,0,14H96.82a7,7,0,0,1,0-14Z"
            fill="none"></path>
        <path
            d="M383.51,69.84H108.86a74,74,0,0,0-73.92,73.92V378a7,7,0,0,0,7,7H176.26v38.17a7,7,0,0,0,7,7h274.8a7,7,0,0,0,7-7V151.4A81.65,81.65,0,0,0,383.51,69.84Zm67.55,346.32H190.26V151.4a81.63,81.63,0,0,0-35.85-67.56h229.1a67.64,67.64,0,0,1,67.55,67.56ZM48.94,371V143.76a60,60,0,0,1,59.92-59.92h4.59a6.62,6.62,0,0,0,1.42.28,67.56,67.56,0,0,1,61.39,67.28v13.8H96.82a7,7,0,0,0,0,14h79.44v33.3H140.75a7,7,0,0,0,0,14h35.51v90.74H96.82a7,7,0,0,0,0,14h79.44V371Z"
            fill="#FFFFFF"></path>
        <path
            d="M213.39,255.22H343.47a5.32,5.32,0,0,0,.69,0l.34-.05.34,0c.13,0,.26-.06.38-.09l.29-.08.36-.13.29-.1.32-.15.31-.15c.1,0,.19-.12.29-.18l.3-.18a5.39,5.39,0,0,0,.54-.4,2,2,0,0,1,.16-.14l.36-.34,0,0c.06-.06.11-.13.16-.19a3.65,3.65,0,0,0,.27-.3l.2-.27.21-.29.18-.3.17-.28.15-.33.14-.3.12-.32c0-.11.07-.21.1-.32s.06-.23.09-.34.06-.22.08-.33,0-.24.05-.36,0-.21,0-.31,0-.29,0-.44,0-.15,0-.22V116.45a7,7,0,0,0-7-7H213.39a7,7,0,0,0-7,7V248.22A7,7,0,0,0,213.39,255.22Zm7-14V208.59a6.67,6.67,0,0,0,.77-.54l39.08-31.56,66.08,64.73Zm116.08-9.66L302.4,198.19l14.26-12.62,19.81,15.84Zm0-108.11v60L320.81,171a7,7,0,0,0-9,.23l-19.43,17.18-26.78-26.23a7,7,0,0,0-9.3-.45l-35.9,29V123.45Z"
            fill="#FFFFFF"></path>
        <path d="M375.57,156.75a7,7,0,1,0,0,14h54.05a7,7,0,0,0,0-14Z" fill="#FFFFFF"></path>
        <path d="M429.62,193.92H375.57a7,7,0,0,0,0,14h54.05a7,7,0,0,0,0-14Z" fill="#FFFFFF"></path>
        <path d="M228.59,273.32a7,7,0,1,0,0,14H351.91a7,7,0,0,0,0-14Z" fill="#FFFFFF"></path>
        <path d="M429.62,273.32h-47.3a7,7,0,0,0,0,14h47.3a7,7,0,0,0,0-14Z" fill="#FFFFFF"></path>
        <path d="M351.91,347.65H228.59a7,7,0,0,0,0,14H351.91a7,7,0,0,0,0-14Z" fill="#FFFFFF"></path>
        <path d="M429.62,347.65h-47.3a7,7,0,0,0,0,14h47.3a7,7,0,0,0,0-14Z" fill="#FFFFFF"></path>
        <path d="M231.41,308.79a7,7,0,0,0,0,14h75.46a7,7,0,0,0,0-14Z" fill="#FFFFFF"></path>
        <path d="M339.85,315.79a7,7,0,0,0,7,7H428.5a7,7,0,0,0,0-14H346.85A7,7,0,0,0,339.85,315.79Z"
            fill="#FFFFFF"></path>
        <path d="M96.82,255.22h60.82a7,7,0,0,0,0-14H96.82a7,7,0,1,0,0,14Z" fill="#FFFFFF"></path>
        <path d="M96.82,294.07h60.82a7,7,0,0,0,0-14H96.82a7,7,0,0,0,0,14Z" fill="#FFFFFF"></path>
    </g>
</svg>