<svg xmlns="http://www.w3.org/2000/svg" viewBox="0 0 500 500" width="500" height="500"
    class="illustration">
    <title>Certificate</title>
    <g id="Layer_1" data-name="Layer 1">
        <path
            d="M381.75,433.12a5.2,5.2,0,0,1,6-.58l25.79,9.6a3.89,3.89,0,0,0,2.88.27c1.14-.53,1.45-2,1.56-3.24a42.56,42.56,0,0,0-1.27-14.65,8.14,8.14,0,0,0-1.66-3.55,9.18,9.18,0,0,0-3.8-2.08L390,411.41a19.45,19.45,0,0,0-6.5-1.49,19.72,19.72,0,0,0-7.24,1.89l-12.17,4.89a7.41,7.41,0,0,0-3.33,2.11c-1,1.4-.95,3.32-.82,5.06.32,4.08-.87,17.19,4.19,19.06C368,444.34,378.64,435.46,381.75,433.12Z"
            fill="transparent"></path>
        <path
            d="M69.25,342c-7.69-17.93-10.35-37.6-11.64-57.07A438.7,438.7,0,0,1,68.93,153.16c2.49-10.27,5.65-21,13.26-28.3,11.15-10.73,28.83-11.44,41.19-20.74l-77.52-1.77a7.48,7.48,0,0,0-4,.64c-2.13,1.23-2.52,4.09-2.67,6.55l-5.49,88.33A263.73,263.73,0,0,0,34.28,240a389.93,389.93,0,0,1,1.56,42.69,245.1,245.1,0,0,1-2.73,34.35c-1.77,11.12-3.37,21.22-1.76,32.44,1.7,11.81,3.52,23.7,2.19,35.65,9.66.75,60.43,9,64-1.48C99.74,377.35,73.13,351.06,69.25,342Z"
            fill="transparent"></path>
    </g>
    <g id="Layer_11" data-name="Layer 11">
        <path
            d="M469.35,100.12a7,7,0,0,0-7-7H36.63a7,7,0,0,0-7,7V387.31a7,7,0,0,0,7,7H324.25c1.86,9.11,4.73,18.45,13.06,24a24.84,24.84,0,0,0,11.44,4l.58,59.06a7,7,0,0,0,11.36,5.41l28.41-22.54,25,19a7,7,0,0,0,11.23-5.45l.94-52.18a22.5,22.5,0,0,0,3.9-1.5c9.91-4.93,13.57-16.15,16.8-26.06.41-1.23.8-2.44,1.21-3.63h14.12a7,7,0,0,0,7-7v-19.9c6.17-5.76,11.76-12.39,12.28-21.05.62-10.24-5.81-18.44-12.28-25.69ZM455,361.45c-4.93,4.29-10,8.73-13.6,14.12s-5.67,11.82-7.69,18c-2.61,8-5.08,15.55-9.74,17.86-5,2.46-12.6-.2-20.71-3-6-2.11-12.27-4.28-18.45-4.66-.65,0-1.29,0-1.94,0-5.37,0-10.95,1.24-16.36,2.46-8.51,1.9-16.54,3.7-21.48.43s-6.42-11.37-8-19.95c-1.12-6.12-2.28-12.44-4.93-17.78-2.76-5.55-7.2-10.44-11.49-15.18-5.76-6.36-11.21-12.36-10.88-17.88.32-5.2,6.31-10.41,12.65-15.93,4.93-4.3,10-8.74,13.6-14.13s5.67-11.82,7.7-18c2.6-8,5.07-15.55,9.73-17.86,4.95-2.47,12.61.21,20.71,3,6,2.11,12.27,4.28,18.46,4.66,5.95.36,12.22-1.05,18.29-2.41,8.51-1.9,16.54-3.7,21.48-.43s6.42,11.37,8,19.95c1.12,6.12,2.28,12.44,4.93,17.78,2.76,5.55,7.2,10.44,11.49,15.18C462.54,334,468,340,467.66,345.51,467.34,350.71,461.35,355.92,455,361.45Zm-61.79,88.27a7,7,0,0,0-8.58.1l-21.45,17-.44-45.56c2.31-.44,4.6-.94,6.83-1.44,5.35-1.2,10.4-2.34,14.39-2.09,4.25.25,9.32,2,14.69,3.9a100.51,100.51,0,0,0,13.65,4l-.68,38ZM298,346.45H119.39a46,46,0,0,1-46-46V187a46.05,46.05,0,0,1,46-46H375.61a46.05,46.05,0,0,1,46,46v72.11a101.27,101.27,0,0,0-13.77,2.41c-5.36,1.2-10.41,2.34-14.4,2.09-4.25-.25-9.32-2-14.69-3.9-10-3.48-21.33-7.44-31.56-2.35-9.91,4.93-13.57,16.15-16.8,26.05-1.82,5.58-3.54,10.84-6.06,14.65s-6.7,7.45-11.12,11.3c-7.86,6.84-16.76,14.59-17.43,25.64A24.1,24.1,0,0,0,298,346.45ZM43.63,107.12H455.35V298.41c-.43-2-.82-4.1-1.22-6.26-1.93-10.56-4.12-22.54-14-29.1a23.89,23.89,0,0,0-4.49-2.31V187a60.07,60.07,0,0,0-60-60H119.39a60.07,60.07,0,0,0-60,60V300.45a60.06,60.06,0,0,0,60,60H307.87l2.39,2.66c3.82,4.21,7.43,8.19,9.32,12a27,27,0,0,1,1.85,5.2H43.63Z"
            fill="#FFFFFF"></path>
        <path d="M315.06,185.71a7,7,0,0,0-7-7H190.93a7,7,0,0,0,0,14H308.06A7,7,0,0,0,315.06,185.71Z"
            fill="#FFFFFF"></path>
        <path d="M274.27,221.51H190.93a7,7,0,0,0,0,14h83.34a7,7,0,0,0,0-14Z" fill="#FFFFFF"></path>
        <path d="M230.35,264.31H190.93a7,7,0,0,0,0,14h39.42a7,7,0,0,0,0-14Z" fill="#FFFFFF"></path>
        <path
            d="M388.71,280.74a59.93,59.93,0,1,0,59.92,59.93A60,60,0,0,0,388.71,280.74Zm0,105.85a45.93,45.93,0,1,1,45.92-45.92A46,46,0,0,1,388.71,386.59Z"
            fill="#FFFFFF"></path>
    </g>
</svg>