<svg xmlns="http://www.w3.org/2000/svg" viewBox="0 0 500 500" width="500" height="500"
    class="illustration">
    <title>15. Consultant</title>
    <g id="Layer_14" data-name="Layer 14">
        <path
            d="M149,155.51l-27.83,2.14c-2.63.21-5.8.8-6.71,3.28a7.26,7.26,0,0,0,0,3.56,67.34,67.34,0,0,1,.28,17.37c-6.12.43-10.59-5.46-13.81-10.68-4.51-7.28-9.19-15.2-8.6-23.75.78-11.31,18.91-50.67,33.89-35.68C136.1,121.68,119.91,160.91,149,155.51Z"
            fill="transparent"></path>
        <path
            d="M96.21,370.75c9.84-15.06,8.86-36.06,21.18-49.19l18.51,15.65,6.86-9.68a26.13,26.13,0,0,1,11.87,14.69c1,3.31,1.42,6.84,2.84,10s4.32,6,7.79,6a181.27,181.27,0,0,0,3.32-43.61,34.8,34.8,0,0,0-22.11,8.5,29.1,29.1,0,0,1-6.14-18.5c.19-7.16,2.57-15.66-2.68-20.52-3.31-3.06-8.39-3.13-12.82-2.29-19.79,3.79-34.28,22-39.71,41.42-3.55,12.71-3.93,26-3.26,39.12.19,3.76-.71,14.79,3.46,16.89S94.23,373.79,96.21,370.75Z"
            fill="transparent"></path>
        <path
            d="M412.23,197.32c-.33,1.78-.72,3.66-2,5-1.62,1.73-4.22,2-6.59,2.23q-51.6,4.2-103.44,3.81c17.86,16.69,51.67,2.33,68.82,19.76,3,3.08,5.21,6.93,8.46,9.77,6.68-5.64,10.11-14.95,17.92-18.89,9-4.56,20.41-.19,29.75-4,7.22-3,11.82-10.38,13.44-18s.73-15.54-.17-23.28l-5-43.07c-.79-6.75-2-21.95-9.89-24.89-12.37-4.61-7.89,11.51-6.88,17.21C420.82,146.47,416.45,174.1,412.23,197.32Z"
            fill="transparent"></path>
    </g>
    <g id="Layer_11" data-name="Layer 11">
        <path d="M185.8,306.94l9.6,8,2.1-23.15A28.37,28.37,0,0,1,185.8,306.94Z" fill="none"></path>
        <path
            d="M120.31,153H222.74a7,7,0,0,1,7,7v6.4c2.06-3.19,3.53-6.2,3.81-9.8l.18-2.11c.85-10.54,2.29-28.13-5-32.55-1.8-.65-8.16-1.33-11.61-1.69a69.21,69.21,0,0,1-9.11-1.29c-6.32-1.69-11.83-4.37-17.17-6.95-6.16-3-12-5.81-18.47-6.83-14.77-2.3-29-1.24-41,3-6.35,2.26-15.11,6.56-20.84,14.23-3.66,4.89-6.13,11.15-7.34,18.61-1,6.06-.83,11.34.46,15.71s3.71,6.65,7.74,10.44l.73.7c.41.38.8.77,1.18,1.17V160A7,7,0,0,1,120.31,153Z"
            fill="none"></path>
        <path
            d="M185.21,257.9a30.56,30.56,0,0,0,30.53-30.53V167H127.31v22.08a6.86,6.86,0,0,1,0,2.67v35.62a30.57,30.57,0,0,0,30.54,30.53Zm-15.47-72.46a7,7,0,0,1,8.24,5.49,23,23,0,0,0,2,5.8c.22.43.45.85.67,1.27a30.29,30.29,0,0,1,2.13,4.58,14.27,14.27,0,0,1-.23,10.68,11.27,11.27,0,0,1-10.07,6.57,10,10,0,0,1-2.66-.35,7,7,0,0,1-.68-13.28c-.24-.49-.52-1-.81-1.56s-.58-1.07-.85-1.61a36.87,36.87,0,0,1-3.23-9.35A7,7,0,0,1,169.74,185.44Zm-18.68,50a7,7,0,0,1,8.56-5,43.07,43.07,0,0,0,24.56-.79,7,7,0,1,1,4.47,13.26A57.14,57.14,0,0,1,156,244,7,7,0,0,1,151.06,235.41Z"
            fill="none"></path>
        <path
            d="M170.6,297.39a14.31,14.31,0,0,0,14.29-14.29V271.9h-27c-.52,0-1,0-1.54,0V283.1A14.31,14.31,0,0,0,170.6,297.39Z"
            fill="none"></path>
        <path
            d="M269,320.62a5.83,5.83,0,0,1-.25.7,12.26,12.26,0,0,1-9.26,7.45l-14.21,2.47V350l14.17,2.52a12.27,12.27,0,0,1,9.21,7.27,6.74,6.74,0,0,1,.3.86,12.26,12.26,0,0,1-1.57,11.09l-8.28,11.81,13.27,13.28,11.81-8.29A12.24,12.24,0,0,1,295.4,387c.22.07.43.14.63.22a12.29,12.29,0,0,1,7.45,9.27L306,410.72H324.7l2.48-14.2a12.27,12.27,0,0,1,7.45-9.28,7.61,7.61,0,0,1,.72-.25,12.21,12.21,0,0,1,11.13,1.56l11.88,8.35,13.28-13.27-8.29-11.81a12.26,12.26,0,0,1-1.54-11.18c.07-.23.15-.45.24-.67a12.26,12.26,0,0,1,9.27-7.45L385.54,350v-18.8l-14.19-2.47a12.28,12.28,0,0,1-9.28-7.45,6.84,6.84,0,0,1-.25-.72,12.27,12.27,0,0,1,1.55-11.14l8.29-11.8-13.28-13.28-11.81,8.29a12.2,12.2,0,0,1-11.17,1.53,4.94,4.94,0,0,1-.68-.23,12.28,12.28,0,0,1-7.45-9.27l-2.47-14.2H306l-2.48,14.19a12.26,12.26,0,0,1-7.45,9.28,5.75,5.75,0,0,1-.66.23,12.27,12.27,0,0,1-11.19-1.53l-11.81-8.29-13.27,13.28,8.28,11.81A12.29,12.29,0,0,1,269,320.62Zm11.93,18.91a34.41,34.41,0,1,1,35.29,35.52h-1.94a34.43,34.43,0,0,1-33.35-35.52Z"
            fill="none"></path>
        <path d="M314.69,361.05h1.12a20.23,20.23,0,1,0-1.12,0Z" fill="none"></path>
        <path d="M144.14,293.1l2,21.88,9.46-7.92A28.49,28.49,0,0,1,144.14,293.1Z" fill="none"></path>
        <path
            d="M297.31,210.69h69.17a7,7,0,0,1,5.87,3.19l7.41,11.4,8.43-11.68a7,7,0,0,1,5.67-2.91h29.35a6.82,6.82,0,0,0,6.8-6.82V115.62a6.83,6.83,0,0,0-6.82-6.82H297.31a6.83,6.83,0,0,0-6.82,6.82v88.25A6.83,6.83,0,0,0,297.31,210.69ZM324,130.92h72a7,7,0,0,1,0,14H324a7,7,0,0,1,0-14Zm0,32.76h50.75a7,7,0,0,1,0,14H324a7,7,0,0,1,0-14Z"
            fill="none"></path>
        <path
            d="M79.13,392.79h.26a7,7,0,0,0,7-6.74L88,343.18a4.7,4.7,0,0,0,0-.65c-.13-2.46-.92-24.48,13.11-39.3,7-7.37,16.62-11.86,28.74-13.42l3.61,39.75a7,7,0,0,0,4.3,5.84,7.1,7.1,0,0,0,2.67.53,7,7,0,0,0,4.5-1.64l18.4-15.41v70.24a7,7,0,0,0,14,0V318.06l19.4,16.23a7,7,0,0,0,4.49,1.64,7.1,7.1,0,0,0,2.67-.53,7,7,0,0,0,4.3-5.84l3.58-39.36a60.21,60.21,0,0,1,19.7,7.36,7,7,0,1,0,7.12-12.05,74.45,74.45,0,0,0-37.89-10.33,6.77,6.77,0,0,0-1.75.23v-5.67a44.61,44.61,0,0,0,30.85-42.37V190.66a7,7,0,0,0,2.84-3,61.68,61.68,0,0,1,5.59-8.81c4-5.67,8.63-12.1,9.34-21.14l.17-2.07c1.21-14.84,3-37.25-12.11-45.93-3.16-1.81-8.51-2.48-16.94-3.37-2.54-.27-6-.64-6.95-.89-5-1.35-9.72-3.62-14.69-6-6.81-3.3-13.85-6.72-22.42-8.06C157.5,88.69,140.94,90,126.69,95c-11.71,4.17-21.17,10.75-27.37,19-5,6.72-8.36,15.05-9.94,24.76-1.34,8.25-1.06,15.42.85,21.91,2.36,8,6.83,12.2,11.56,16.67l.73.68c2.49,2.36,4.8,5.78,7.24,9.4,1.14,1.69,2.32,3.43,3.55,5.11v34.77a44.62,44.62,0,0,0,29,41.73v6.5a6.85,6.85,0,0,0-2.36-.42c-21,0-37.49,6.2-49.07,18.43C73.57,311.91,73.68,337.22,74,343l-1.56,42.56A7,7,0,0,0,79.13,392.79Zm65-99.69a28.49,28.49,0,0,0,11.45,14L146.13,315ZM195.4,315l-9.6-8a28.37,28.37,0,0,0,11.7-15.11ZM112.13,167.92l-.73-.7c-4-3.79-6.46-6.08-7.74-10.44s-1.44-9.65-.46-15.71c1.21-7.46,3.68-13.72,7.34-18.61,5.73-7.67,14.49-12,20.84-14.23,12.07-4.29,26.26-5.35,41-3,6.5,1,12.31,3.84,18.47,6.83,5.34,2.58,10.85,5.26,17.17,6.95a69.21,69.21,0,0,0,9.11,1.29c3.45.36,9.81,1,11.61,1.69,7.25,4.42,5.81,22,5,32.55l-.18,2.11c-.28,3.6-1.75,6.61-3.81,9.8V160a7,7,0,0,0-7-7H120.31a7,7,0,0,0-7,7v9.09C112.93,168.69,112.54,168.3,112.13,167.92Zm15.18,59.45V191.75a6.86,6.86,0,0,0,0-2.67V167h88.43v60.37a30.56,30.56,0,0,1-30.53,30.53H157.85A30.57,30.57,0,0,1,127.31,227.37Zm30.54,44.53h27v11.2a14.29,14.29,0,0,1-28.58,0V271.86C156.82,271.88,157.33,271.9,157.85,271.9Z"
            fill="#FFFFFF"></path>
        <path
            d="M188.65,242.92a7,7,0,1,0-4.47-13.26,43.07,43.07,0,0,1-24.56.79A7,7,0,0,0,156,244a57.14,57.14,0,0,0,32.63-1.06Z"
            fill="#FFFFFF"></path>
        <path
            d="M167.48,203c.27.54.56,1.07.85,1.61s.57,1.07.81,1.56a7,7,0,0,0,.68,13.28,10,10,0,0,0,2.66.35,11.27,11.27,0,0,0,10.07-6.57,14.27,14.27,0,0,0,.23-10.68,30.29,30.29,0,0,0-2.13-4.58c-.22-.42-.45-.84-.67-1.27a23,23,0,0,1-2-5.8,7,7,0,1,0-13.73,2.75A36.87,36.87,0,0,0,167.48,203Z"
            fill="#FFFFFF"></path>
        <path
            d="M297.31,224.69h65.37l9.46,14.56a8.73,8.73,0,0,0,5.57,3.82,8.72,8.72,0,0,0,6.61-1.21,8.79,8.79,0,0,0,2.37-2.26l10.76-14.91h25.77A20.84,20.84,0,0,0,444,203.87V115.62a20.85,20.85,0,0,0-20.8-20.82H297.3a20.85,20.85,0,0,0-20.81,20.82v88.25A20.86,20.86,0,0,0,297.31,224.69Zm-6.82-109.07a6.83,6.83,0,0,1,6.82-6.82H423.19a6.83,6.83,0,0,1,6.82,6.82v88.25a6.82,6.82,0,0,1-6.8,6.82H393.86a7,7,0,0,0-5.67,2.91l-8.43,11.68-7.41-11.4a7,7,0,0,0-5.87-3.19H297.31a6.83,6.83,0,0,1-6.82-6.82Z"
            fill="#FFFFFF"></path>
        <path d="M324,144.92h72a7,7,0,0,0,0-14H324a7,7,0,0,0,0,14Z" fill="#FFFFFF"></path>
        <path d="M324,177.68h50.75a7,7,0,0,0,0-14H324a7,7,0,0,0,0,14Z" fill="#FFFFFF"></path>
        <path
            d="M314.27,375.05h1.94a34.22,34.22,0,1,0-1.94,0Zm-12.92-49.34a20.42,20.42,0,1,1,14.46,35.34h-1.12a20.45,20.45,0,0,1-13.34-35.34Z"
            fill="#FFFFFF"></path>
        <path
            d="M246.89,304.57l7.62,10.85-13,2.27a12.35,12.35,0,0,0-10.19,12.14v21.61a12.34,12.34,0,0,0,10.19,12.1l13,2.31-7.57,10.78a12.29,12.29,0,0,0,1.36,15.83l15.26,15.27a12.35,12.35,0,0,0,15.81,1.36l10.85-7.62,2.28,13.06a12.35,12.35,0,0,0,12.13,10.19h21.61a12.35,12.35,0,0,0,12.1-10.21l2.27-13,10.93,7.69a12.34,12.34,0,0,0,15.82-1.36l15.25-15.26a12.28,12.28,0,0,0,1.37-15.82l-7.62-10.85,13-2.27a12.3,12.3,0,0,0,10.24-12.2V329.8a12.34,12.34,0,0,0-10.21-12.11l-13-2.27,7.61-10.83a12.3,12.3,0,0,0-1.35-15.84l-15.27-15.27a12.33,12.33,0,0,0-15.81-1.35l-10.85,7.61-2.27-13.05a12.35,12.35,0,0,0-12.14-10.19H304.56a12.35,12.35,0,0,0-12.11,10.21l-2.27,13-10.85-7.61a12.34,12.34,0,0,0-15.82,1.36l-15.23,15.25A12.28,12.28,0,0,0,246.89,304.57Zm25.53-20.19,11.81,8.29a12.27,12.27,0,0,0,11.19,1.53,5.75,5.75,0,0,0,.66-.23,12.26,12.26,0,0,0,7.45-9.28L306,270.5H324.8l2.47,14.2a12.28,12.28,0,0,0,7.45,9.27,4.94,4.94,0,0,0,.68.23,12.2,12.2,0,0,0,11.17-1.53l11.81-8.29,13.28,13.28-8.29,11.8a12.27,12.27,0,0,0-1.55,11.14,6.84,6.84,0,0,0,.25.72,12.28,12.28,0,0,0,9.28,7.45l14.19,2.47V350l-14.22,2.48a12.26,12.26,0,0,0-9.27,7.45c-.09.22-.17.44-.24.67a12.26,12.26,0,0,0,1.54,11.18l8.29,11.81L358.36,396.9l-11.88-8.35A12.21,12.21,0,0,0,335.35,387a7.61,7.61,0,0,0-.72.25,12.27,12.27,0,0,0-7.45,9.28l-2.48,14.2H306l-2.47-14.21a12.29,12.29,0,0,0-7.45-9.27c-.2-.08-.41-.15-.63-.22a12.24,12.24,0,0,0-11.22,1.52l-11.81,8.29L259.1,383.55l8.28-11.81A12.26,12.26,0,0,0,269,360.65a6.74,6.74,0,0,0-.3-.86,12.27,12.27,0,0,0-9.21-7.27L245.27,350V331.24l14.21-2.47a12.26,12.26,0,0,0,9.26-7.45,5.83,5.83,0,0,0,.25-.7,12.29,12.29,0,0,0-1.56-11.15l-8.28-11.81Z"
            fill="#FFFFFF"></path>
    </g>
</svg>