<svg xmlns="http://www.w3.org/2000/svg" viewBox="0 0 500 500" width="500" height="500"
    class="illustration">
    <g id="Layer_10" data-name="Layer 10">
        <rect x="58.79" y="75.08" width="26.25" height="271.37" fill="transparent"></rect>
        <circle cx="257.39" cy="324.71" r="13.53" fill="transparent"></circle>
        <path d="M309.5,360.44s-94.75,15.07-95.26,65.12l-52.41,2.55L201,352Z" fill="transparent"></path>
    </g>
    <g id="Layer_3" data-name="Layer 3">
        <path
            d="M418.76,360.44H89.5a40.78,40.78,0,0,1-40.74-40.73V101.81A40.78,40.78,0,0,1,89.5,61.08H418.76a40.77,40.77,0,0,1,40.73,40.73v217.9A40.77,40.77,0,0,1,418.76,360.44ZM89.5,75.08a26.77,26.77,0,0,0-26.74,26.73v217.9A26.77,26.77,0,0,0,89.5,346.44H418.76a26.76,26.76,0,0,0,26.73-26.73V101.81a26.76,26.76,0,0,0-26.73-26.73Z"
            fill="#FFFFFF"></path>
        <path d="M452.49,302.26H55.76a7,7,0,1,1,0-14H452.49a7,7,0,0,1,0,14Z" fill="#FFFFFF"></path>
        <path
            d="M355.42,437H158.22a7,7,0,0,1-6-10.63l46.4-76.56a7,7,0,1,1,12,7.25l-40,65.94h173L307.51,356.8a7,7,0,0,1,12.3-6.71l41.76,76.56A7,7,0,0,1,355.42,437Z"
            fill="#FFFFFF"></path>
        <path
            d="M166.22,253.4a20.36,20.36,0,0,1-20.34-20.34V221.65a7,7,0,1,1,14,0v11.41a6.34,6.34,0,1,0,12.68,0V221.65a7,7,0,0,1,14,0v11.41A20.36,20.36,0,0,1,166.22,253.4Z"
            fill="#FFFFFF"></path>
        <path
            d="M165.64,228.65a39.14,39.14,0,0,1-39.1-39.1V155.9a7,7,0,0,1,7-7h64.2a7,7,0,0,1,7,7v33.65A39.14,39.14,0,0,1,165.64,228.65Zm-25.1-65.75v26.65a25.1,25.1,0,0,0,50.2,0V162.9Z"
            fill="#FFFFFF"></path>
        <path
            d="M225.12,299.6a7,7,0,0,1-6.94-6.14l-2.72-22a7.35,7.35,0,0,1,0-1.24c.08-1.43.54-14.2-7.5-22.69-5-5.31-12.59-8-22.48-8a7,7,0,0,1,0-14c13.89,0,24.88,4.16,32.65,12.37,11.17,11.81,11.49,27.89,11.34,32.42l2.65,21.47a7,7,0,0,1-6.09,7.81A8.46,8.46,0,0,1,225.12,299.6Z"
            fill="#FFFFFF"></path>
        <path
            d="M105.05,295.31a7,7,0,0,1-7-7V274.82a49.39,49.39,0,0,1,49.34-49.34,7,7,0,0,1,0,14,35.38,35.38,0,0,0-35.34,35.34v13.49A7,7,0,0,1,105.05,295.31Z"
            fill="#FFFFFF"></path>
        <path
            d="M197.65,182a7,7,0,0,1-5.46-11.38c.88-1.1,1.78-2.42,2.73-3.83a44.71,44.71,0,0,1,6.15-7.79l.47-.45c2.51-2.36,3.55-3.4,4.13-5.38a19.83,19.83,0,0,0,.22-8.69,23.77,23.77,0,0,0-4.11-10.51c-3.21-4.29-8.22-6.73-11.85-8a50.32,50.32,0,0,0-24.44-1.8c-3.69.58-7.16,2.26-10.84,4a61.49,61.49,0,0,1-11.23,4.53,42.63,42.63,0,0,1-6.11.88c-1.83.2-5.11.54-6.43.86-2.88,2.33-2,13.11-1.62,17.8l.11,1.32c.19,2.41,1.49,4.34,3.77,7.53a50.73,50.73,0,0,1,4.47,7.14A7,7,0,1,1,125,174.38a37.91,37.91,0,0,0-3.29-5.15c-2.73-3.83-5.83-8.17-6.33-14.57l-.1-1.29c-.82-10-2-25,8.89-31.26,2.34-1.35,5.49-1.8,11.64-2.45,1.45-.15,3.43-.36,4-.49a50.57,50.57,0,0,0,8.69-3.6c4.23-2,9-4.38,14.79-5.28a64.13,64.13,0,0,1,31.29,2.44c7.83,2.78,14.18,7.22,18.37,12.82a37.54,37.54,0,0,1,6.72,16.66,33.48,33.48,0,0,1-.61,14.89c-1.67,5.69-5,8.84-8,11.61l-.45.43a35.27,35.27,0,0,0-4.17,5.45c-1.06,1.58-2.16,3.21-3.4,4.75A7,7,0,0,1,197.65,182Zm-67.06-47.44Z"
            fill="#FFFFFF"></path>
        <path
            d="M167.24,197.63H167A7,7,0,0,1,161.23,187l-.57-2.05a11.89,11.89,0,0,0-.72-2.17,7,7,0,1,1,11.4-8.12,19.85,19.85,0,0,1,2.82,6.59l1.07,3.87a11.53,11.53,0,0,1,.37,5.5A8.63,8.63,0,0,1,167.24,197.63Zm-5.41-8.46h0Z"
            fill="#FFFFFF"></path>
        <path
            d="M166.26,212.33a38.2,38.2,0,0,1-12.19-2,7,7,0,1,1,4.47-13.26,24.34,24.34,0,0,0,13.89.44,7,7,0,0,1,3.6,13.53A37.8,37.8,0,0,1,166.26,212.33Z"
            fill="#FFFFFF"></path>
        <path d="M385.56,141H283.68a7,7,0,0,1,0-14H385.56a7,7,0,1,1,0,14Z" fill="#FFFFFF"></path>
        <path d="M385.56,191.66H283.68a7,7,0,0,1,0-14H385.56a7,7,0,0,1,0,14Z" fill="#FFFFFF"></path>
        <path d="M385.56,239.48H283.68a7,7,0,0,1,0-14H385.56a7,7,0,0,1,0,14Z" fill="#FFFFFF"></path>
    </g>
</svg>