<svg xmlns="http://www.w3.org/2000/svg" viewBox="0 0 500 500" width="500" height="500"
    class="illustration">
    <g id="Layer_10" data-name="Layer 10">
        <path
            d="M184.88,207l59-31.3,60.16,34.8S278.42,224,280.29,226.09s-1.87,39.5-1.87,39.5-41.52,13.26-70.16,0l-1.91-41.7Z"
            fill="transparent"></path>
        <rect x="111.3" y="63.78" width="14.63" height="358.75" fill="transparent"></rect>
        <rect x="147.37" y="108.23" width="15.32" height="278.15" fill="transparent"></rect>
        <circle cx="310.82" cy="248.3" r="13.75" fill="transparent"></circle>
    </g>
    <g id="Layer_3" data-name="Layer 3">
        <path
            d="M244.45,254.1a7.07,7.07,0,0,1-3.5-.94l-66.62-38.47a7,7,0,0,1,0-12.12L241,164.1a7,7,0,0,1,7,0l66.62,38.47a7,7,0,0,1,0,12.12L248,253.16A7,7,0,0,1,244.45,254.1Zm-52.62-45.47L244.45,239l52.62-30.38-52.62-30.39Z"
            fill="#FFFFFF"></path>
        <path
            d="M244.84,282.83A100.07,100.07,0,0,1,211.11,277l-8.58-3.07a7,7,0,0,1-4.64-6.59V224.25a7,7,0,0,1,14,0v38.16l3.93,1.41a86.42,86.42,0,0,0,57.4.22l4.79-1.67V223.68a7,7,0,0,1,14,0v43.66a7,7,0,0,1-4.7,6.61l-9.48,3.31A100,100,0,0,1,244.84,282.83Z"
            fill="#FFFFFF"></path>
        <path d="M311.07,244.58a7,7,0,0,1-7-7v-29a7,7,0,0,1,14,0v29A7,7,0,0,1,311.07,244.58Z"
            fill="#FFFFFF"></path>
        <path
            d="M357.28,436.53H136.75a35.16,35.16,0,0,1-35.13-35.12V88a35.17,35.17,0,0,1,35.13-35.12H357.28A35.17,35.17,0,0,1,392.41,88V401.41A35.16,35.16,0,0,1,357.28,436.53ZM136.75,66.83A21.15,21.15,0,0,0,115.62,88V401.41a21.15,21.15,0,0,0,21.13,21.12H357.28a21.15,21.15,0,0,0,21.13-21.12V88a21.15,21.15,0,0,0-21.13-21.12Z"
            fill="#FFFFFF"></path>
        <path
            d="M346.52,394.86H146.61a7,7,0,0,1-7-7V102.73a7,7,0,0,1,7-7H346.52a7,7,0,0,1,7,7V387.86A7,7,0,0,1,346.52,394.86Zm-192.91-14H339.52V109.73H153.61Z"
            fill="#FFFFFF"></path>
        <path d="M267.63,332.11h-42.9a7,7,0,0,1,0-14h42.9a7,7,0,0,1,0,14Z" fill="#FFFFFF"></path>
    </g>
</svg>