<svg xmlns="http://www.w3.org/2000/svg" viewBox="0 0 500 500" width="500" height="500"
    class="illustration">
    <title>Test</title>
    <g id="Layer_1" data-name="Layer 1">
        <polygon
            points="127.23 52.25 130.61 415.46 417.8 418.84 414.42 439.12 112.03 439.12 110.34 48.87 127.23 52.25"
            fill="transparent"></polygon>
        <polygon points="358.67 57.32 356.42 127.15 418.36 127.15 358.67 57.32" fill="transparent"></polygon>
    </g>
    <g id="Layer_11" data-name="Layer 11">
        <path
            d="M428.43,121.88l-70-79a7,7,0,0,0-6.56-2.22,6.72,6.72,0,0,0-1.35-.14H110.19a10,10,0,0,0-10,10v383a10,10,0,0,0,10,10h310a10,10,0,0,0,10-10V126.79a1.28,1.28,0,0,0,0-.19A7,7,0,0,0,428.43,121.88ZM114.19,429.52v-375h232v69a10,10,0,0,0,10,10h60v296Zm246-310V66l47.45,53.54Z"
            fill="#FFFFFF"></path>
        <path d="M314.75,106.07h-152a7,7,0,1,0,0,14h152a7,7,0,0,0,0-14Z" fill="#FFFFFF"></path>
        <path d="M240.66,144.32a7,7,0,0,0-7-7H162.71a7,7,0,1,0,0,14h70.95A7,7,0,0,0,240.66,144.32Z"
            fill="#FFFFFF"></path>
        <path
            d="M167.77,178.15a7,7,0,0,0-7,7v31.53a7,7,0,0,0,7,7h31.54a7,7,0,0,0,7-7V185.15a7,7,0,0,0-7-7Zm24.54,31.53H174.77V192.15h17.54Z"
            fill="#FFFFFF"></path>
        <path
            d="M288.85,223.68a7,7,0,0,0,7-7V185.15a7,7,0,0,0-7-7H257.31a7,7,0,0,0-7,7v31.53a7,7,0,0,0,7,7Zm-24.54-31.53h17.54v17.53H264.31Z"
            fill="#FFFFFF"></path>
        <path
            d="M378.38,178.15H346.85a7,7,0,0,0-7,7v31.53a7,7,0,0,0,7,7h31.53a7,7,0,0,0,7-7V185.15A7,7,0,0,0,378.38,178.15Zm-7,31.53H353.85V192.15h17.53Z"
            fill="#FFFFFF"></path>
        <path d="M314.75,263.18h-152a7,7,0,1,0,0,14h152a7,7,0,0,0,0-14Z" fill="#FFFFFF"></path>
        <path d="M233.66,294.43H162.71a7,7,0,1,0,0,14h70.95a7,7,0,1,0,0-14Z" fill="#FFFFFF"></path>
        <path
            d="M199.31,335.26H167.77a7,7,0,0,0-7,7v31.53a7,7,0,0,0,7,7h31.54a7,7,0,0,0,7-7V342.26A7,7,0,0,0,199.31,335.26Zm-7,31.53H174.77V349.26h17.54Z"
            fill="#FFFFFF"></path>
        <path
            d="M288.85,335.26H257.31a7,7,0,0,0-7,7v31.53a7,7,0,0,0,7,7h31.54a7,7,0,0,0,7-7V342.26A7,7,0,0,0,288.85,335.26Zm-7,31.53H264.31V349.26h17.54Z"
            fill="#FFFFFF"></path>
        <path
            d="M378.38,335.26H346.85a7,7,0,0,0-7,7v31.53a7,7,0,0,0,7,7h31.53a7,7,0,0,0,7-7V342.26A7,7,0,0,0,378.38,335.26Zm-7,31.53H353.85V349.26h17.53Z"
            fill="#FFFFFF"></path>
    </g>
</svg>