<svg xmlns="http://www.w3.org/2000/svg" viewBox="0 0 500 500" width="500" height="500"
    class="illustration">
    <title>5.Data Transfer</title>
    <g id="Layer_4" data-name="Layer 4">
        <path
            d="M203.23,71.06s27,13.52,30.41,29.28,0,89,0,89l-29.28,28.15s36,11.27,41.67-15.76,3.38-112.63,3.38-112.63S222.38,68.81,203.23,71.06Z"
            fill="transparent"></path>
        <polygon points="116.51 236.62 191.97 256.89 180.71 226.48 114.26 226.48 116.51 236.62"
            fill="transparent"></polygon>
        <path d="M249.41,89.08s-27-20.27-46.18-18" fill="transparent"></path>
        <polygon points="116.51 236.62 191.97 256.89 180.71 226.48 114.26 226.48 116.51 236.62"
            fill="transparent"></polygon>
        <path
            d="M415,235.49s27,13.52,30.41,29.29,0,89,0,89L416.09,381.9s36,11.27,41.67-15.76,3.38-112.63,3.38-112.63S434.11,233.24,415,235.49Z"
            fill="transparent"></path>
        <polygon points="328.24 401.05 403.7 421.32 392.44 390.91 325.99 390.91 328.24 401.05"
            fill="transparent"></polygon>
    </g>
    <g id="Layer_1" data-name="Layer 1">
        <polygon
            points="114.02 128.44 106.88 116.35 87.47 116.35 87.47 151.91 114.02 151.91 114.02 128.44"
            fill="none"></polygon>
        <polygon
            points="206.93 128.44 199.8 116.35 180.39 116.35 180.39 151.91 206.93 151.91 206.93 128.44"
            fill="none"></polygon>
        <path
            d="M300.62,311.39H414.43a7.05,7.05,0,0,0,7.05-7.05V296.5a7.05,7.05,0,0,0-7.05-7H300.62a7.05,7.05,0,0,0-7.05,7v7.84A7.05,7.05,0,0,0,300.62,311.39ZM305.47,294h43.42a7,7,0,0,1,0,14H305.47a7,7,0,0,1,0-14Z"
            fill="none"></path>
        <path
            d="M456.8,351.49V266.54a24.69,24.69,0,0,0-24.66-24.67H279.59a24.69,24.69,0,0,0-24.66,24.67v84.95Zm-177.23-55a21.07,21.07,0,0,1,21.05-21H414.43a21.07,21.07,0,0,1,21.05,21v7.84a21.07,21.07,0,0,1-21.05,21.05H300.62a21.07,21.07,0,0,1-21.05-21.05Z"
            fill="none"></path>
        <path d="M256,365.49a24.69,24.69,0,0,0,23.64,17.66H432.14a24.69,24.69,0,0,0,23.64-17.66Z"
            fill="none"></path>
        <polygon points="316.11 424.81 399.19 424.81 384.1 397.15 332.87 397.15 316.11 424.81"
            fill="none"></polygon>
        <path
            d="M176.52,216.47h43.89a24.7,24.7,0,0,0,23.64-17.67H44.22a24.7,24.7,0,0,0,23.64,17.67H176.52Z"
            fill="none"></path>
        <polygon points="121.14 230.47 104.37 258.13 187.46 258.13 172.37 230.47 121.14 230.47"
            fill="none"></polygon>
        <path
            d="M245.07,184.8v-85a24.68,24.68,0,0,0-24.66-24.66H67.86A24.68,24.68,0,0,0,43.2,99.85v85Zm-78.68-75.45a7,7,0,0,1,7-7h30.4a7,7,0,0,1,6,3.45L220,123a7.08,7.08,0,0,1,1,3.56v32.38a7,7,0,0,1-7,7H173.39a7,7,0,0,1-7-7Zm-92.92,0a7,7,0,0,1,7-7h30.41a7,7,0,0,1,6,3.45L127,123a7,7,0,0,1,1,3.56v32.38a7,7,0,0,1-7,7H80.47a7,7,0,0,1-7-7Z"
            fill="none"></path>
        <path
            d="M205.27,268.7a7,7,0,0,0,.13-6.92l-17.08-31.31h32.09a38.71,38.71,0,0,0,38.66-38.67v-92a38.7,38.7,0,0,0-38.66-38.66H67.86A38.7,38.7,0,0,0,29.2,99.85v92a38.71,38.71,0,0,0,38.66,38.67h36.91L86,261.5a7,7,0,0,0,6,10.63H199.25A7,7,0,0,0,205.27,268.7ZM67.86,75.19H220.41a24.68,24.68,0,0,1,24.66,24.66v85H43.2v-85A24.68,24.68,0,0,1,67.86,75.19ZM44.22,198.8H244.05a24.7,24.7,0,0,1-23.64,17.67H67.86A24.7,24.7,0,0,1,44.22,198.8Zm60.15,59.33,16.77-27.66h51.23l15.09,27.66Z"
            fill="#FFFFFF"></path>
        <path
            d="M240.93,266.54v91.95a38.7,38.7,0,0,0,38.66,38.66H316.5l-18.81,31a7,7,0,0,0,6,10.63H411a7,7,0,0,0,6.15-10.35l-17.08-31.31h32.09a38.7,38.7,0,0,0,38.66-38.66V266.54a38.71,38.71,0,0,0-38.66-38.67H279.59A38.71,38.71,0,0,0,240.93,266.54ZM399.19,424.81H316.11l16.76-27.66H384.1Zm32.95-41.66H279.59A24.69,24.69,0,0,1,256,365.49H455.78A24.69,24.69,0,0,1,432.14,383.15ZM279.59,241.87H432.14a24.69,24.69,0,0,1,24.66,24.67v84.95H254.93V266.54A24.69,24.69,0,0,1,279.59,241.87Z"
            fill="#FFFFFF"></path>
        <path
            d="M296.71,138.88h40A18.3,18.3,0,0,1,355,157.16v26.37l-14.19-12.91A7,7,0,1,0,331.42,181l24.78,22.53a7,7,0,0,0,9.54-.12l25.91-24.78A7,7,0,1,0,382,168.49L369,180.87V157.16a32.32,32.32,0,0,0-32.28-32.28h-40a7,7,0,0,0,0,14Z"
            fill="#FFFFFF"></path>
        <path
            d="M159.81,379.89h40a7,7,0,1,0,0-14h-40a18.29,18.29,0,0,1-18.28-18.27V321.25l14.19,12.9a7,7,0,1,0,9.42-10.36l-24.77-22.52a7,7,0,0,0-9.55.12l-25.91,24.78a7,7,0,0,0,9.68,10.11l12.94-12.37v23.71A32.31,32.31,0,0,0,159.81,379.89Z"
            fill="#FFFFFF"></path>
        <path
            d="M80.47,165.91H121a7,7,0,0,0,7-7V126.53a7,7,0,0,0-1-3.56L116.91,105.8a7,7,0,0,0-6-3.45H80.47a7,7,0,0,0-7,7v49.56A7,7,0,0,0,80.47,165.91Zm7-49.56h19.41L114,128.44v23.47H87.47Z"
            fill="#FFFFFF"></path>
        <path
            d="M173.39,165.91h40.54a7,7,0,0,0,7-7V126.53a7.08,7.08,0,0,0-1-3.56L209.82,105.8a7,7,0,0,0-6-3.45h-30.4a7,7,0,0,0-7,7v49.56A7,7,0,0,0,173.39,165.91Zm7-49.56H199.8l7.13,12.09v23.47H180.39Z"
            fill="#FFFFFF"></path>
        <path
            d="M300.62,325.39H414.43a21.07,21.07,0,0,0,21.05-21.05V296.5a21.07,21.07,0,0,0-21.05-21H300.62a21.07,21.07,0,0,0-21.05,21v7.84A21.07,21.07,0,0,0,300.62,325.39Zm-7.05-28.89a7.05,7.05,0,0,1,7.05-7H414.43a7.05,7.05,0,0,1,7.05,7v7.84a7.05,7.05,0,0,1-7.05,7.05H300.62a7.05,7.05,0,0,1-7.05-7.05Z"
            fill="#FFFFFF"></path>
        <path d="M305.47,308h43.42a7,7,0,0,0,0-14H305.47a7,7,0,0,0,0,14Z" fill="#FFFFFF"></path>
    </g>
</svg>